<svg xmlns="http://www.w3.org/2000/svg" width="128" height="128" viewBox="0 0 128 128"><defs><linearGradient id="metal" x2=".8" y2="1"><stop stop-color="#c1c7b9"/><stop offset=".45" stop-color="#7a9090"/><stop offset="1" stop-color="#374e59"/></linearGradient><pattern id="weave" width="8" height="8" patternUnits="userSpaceOnUse"><path d="M0 2H8M2 0V8" stroke="#1b302c" stroke-opacity=".42" stroke-width="2"/><path d="M0 6H8M6 0V8" stroke="#e2d6a6" stroke-opacity=".3"/></pattern><pattern id="carbon" width="12" height="12" patternUnits="userSpaceOnUse"><path d="M0 3L3 0M0 9L9 0M3 12L12 3M9 12L12 9" stroke="#7c9e98" stroke-width="3"/><path d="M0 0L12 12" stroke="#182e34" stroke-width="3"/></pattern></defs><ellipse cx="65" cy="110" rx="43" ry="7" fill="#030b0e" opacity=".35"/><g stroke="#1b2b2e" stroke-width="2" stroke-linejoin="round"><path d="M21 34L85 20 106 94 43 110Z" fill="#3b514b"/><path d="M25 37L82 24 101 90 46 104Z" fill="url(#weave)"/><path d="M27 45L94 76M31 61L99 92M40 33L61 103M59 29L79 97M77 26L96 92" stroke="#a9b69c" stroke-width="3"/></g></svg>
