<svg xmlns="http://www.w3.org/2000/svg" width="128" height="128" viewBox="0 0 128 128"><defs><linearGradient id="metal" x2=".8" y2="1"><stop stop-color="#c1c7b9"/><stop offset=".45" stop-color="#7a9090"/><stop offset="1" stop-color="#374e59"/></linearGradient><pattern id="weave" width="8" height="8" patternUnits="userSpaceOnUse"><path d="M0 2H8M2 0V8" stroke="#1b302c" stroke-opacity=".42" stroke-width="2"/><path d="M0 6H8M6 0V8" stroke="#e2d6a6" stroke-opacity=".3"/></pattern><pattern id="carbon" width="12" height="12" patternUnits="userSpaceOnUse"><path d="M0 3L3 0M0 9L9 0M3 12L12 3M9 12L12 9" stroke="#7c9e98" stroke-width="3"/><path d="M0 0L12 12" stroke="#182e34" stroke-width="3"/></pattern></defs><ellipse cx="65" cy="110" rx="43" ry="7" fill="#030b0e" opacity=".35"/><g stroke="#1b2b2e" stroke-width="2" stroke-linejoin="round"><path d="M17 26L103 19 113 98 28 109Z" fill="#346853"/><path d="M32 40H77V58H98M33 78H58V56H39M40 95H87V75" fill="none" stroke="#ba9e59" stroke-width="4"/><g fill="#dfc889"><circle cx="32" cy="40" r="5"/><circle cx="40" cy="95" r="5"/><circle cx="98" cy="58" r="5"/></g></g></svg>
