<svg xmlns="http://www.w3.org/2000/svg" width="128" height="128" viewBox="0 0 128 128"><defs><linearGradient id="metal" x2=".8" y2="1"><stop stop-color="#78817d"/><stop offset=".35" stop-color="#424d4c"/><stop offset="1" stop-color="#202a2d"/></linearGradient><pattern id="vent" width="7" height="7" patternUnits="userSpaceOnUse"><path d="M0 2H7" stroke="#111c20" stroke-width="3"/></pattern></defs><path d="M12 21L113 15 120 112 12 118Z" fill="#0c171b" opacity=".65"/><path d="M10 15H116V110H10Z" fill="url(#metal)" stroke="#202e32" stroke-width="3"/><path d="M20 29H49V98H20Z M52 29H81V98H52Z M84 29H111V98H84Z" fill="#344c48" stroke="#a4a98e"/><path d="M28 25V17H96V25M30 102V112H94V102" stroke="#ad774e" stroke-width="5" fill="none"/><path d="M27 48H42M60 48H74M92 48H104M30 60H40M63 60H73M94 60H103" stroke="#d1bd78" stroke-width="4"/><path d="M14 19H28M105 105H113" stroke="#c5b692" stroke-width="2"/></svg>
